<svg width="174" height="173" viewBox="0 0 174 173" fill="none" xmlns="http://www.w3.org/2000/svg">
<g filter="url(#filter0_d_5_19)">
<path d="M46.0177 91.0775C46.2884 91.0376 46.5591 90.9888 46.8298 90.9418L47.6641 90.7791L49.4032 90.4388C50.5635 90.2167 51.7255 90.0035 52.8891 89.7993C55.2164 89.3916 57.55 89.0214 59.8898 88.6885C64.5688 88.0253 69.2682 87.5233 73.9882 87.1824C78.9929 86.8289 84.0127 86.669 89.0475 86.7026C91.3702 86.7136 93.6963 86.8056 96.0259 86.9783C98.3527 87.1512 100.681 87.4064 102.994 87.7989C105.316 88.1765 107.614 88.6849 109.876 89.3219C112.149 89.9697 114.377 90.7624 116.546 91.6948C116.794 91.8024 117.011 91.9686 117.18 92.179C117.348 92.3895 117.463 92.6379 117.513 92.9028C117.563 93.1677 117.547 93.4412 117.467 93.6997C117.388 93.9582 117.246 94.194 117.055 94.3866L117.038 94.4021C115.627 95.8129 114.442 97.4309 113.525 99.1987C113.297 99.6399 113.087 100.09 112.891 100.545C112.722 100.914 112.586 101.297 112.487 101.689C112.472 101.758 112.465 101.829 112.468 101.899C112.471 101.915 112.455 101.889 112.463 101.908C112.509 101.962 112.563 102.008 112.623 102.045C112.72 102.105 112.825 102.151 112.936 102.181C113.001 102.199 113.067 102.213 113.134 102.223C113.168 102.229 113.204 102.233 113.24 102.237L113.428 102.251L114.225 102.308C114.757 102.341 115.29 102.359 115.822 102.377C116.354 102.399 116.887 102.412 117.42 102.421C117.952 102.435 118.485 102.442 119.018 102.442C119.551 102.446 120.083 102.447 120.616 102.438C121.149 102.434 121.681 102.428 122.214 102.412C123.279 102.391 124.344 102.366 125.409 102.317C127.538 102.228 129.664 102.067 131.786 101.862C133.909 101.659 136.025 101.395 138.135 101.068L139.704 100.813C140.122 100.742 140.532 100.629 140.928 100.476C141.019 100.44 141.099 100.399 141.185 100.363C141.254 100.32 141.34 100.283 141.398 100.24C141.46 100.211 141.519 100.175 141.572 100.132C141.595 100.116 141.618 100.099 141.64 100.081C141.655 100.065 141.671 100.05 141.688 100.036C141.702 100.027 141.713 100.015 141.721 100.001C141.727 99.9908 141.747 99.9817 141.748 99.9746C141.748 99.9613 141.773 99.9546 141.767 99.947C141.789 99.941 141.78 99.9066 141.792 99.8381C141.78 99.7941 141.769 99.7396 141.761 99.6984C141.743 99.6545 141.723 99.6118 141.699 99.5706L141.641 99.4737L141.539 99.315L141.322 98.9764L140.452 97.6213L138.706 94.9259C137.176 92.5593 135.621 90.2207 133.967 87.9692C132.327 85.7248 130.56 83.5752 128.675 81.5305C126.802 79.5183 124.763 77.6659 122.579 75.9926L121.76 75.3759C121.487 75.1714 121.198 74.9904 120.918 74.7964L120.071 74.223C119.955 74.1413 119.834 74.0659 119.709 73.9971C119.596 73.9334 119.481 73.8773 119.368 73.8258C119.17 73.7333 118.961 73.6652 118.747 73.6229C118.577 73.5906 118.468 73.6138 118.521 73.6107C118.563 73.6015 118.603 73.5831 118.637 73.557C118.66 73.5463 118.672 73.5166 118.686 73.5164C118.698 73.5092 118.701 73.4848 118.704 73.4987C118.699 73.5101 118.702 73.4878 118.699 73.5143C118.69 73.5631 118.686 73.6125 118.686 73.662L118.668 73.3445L119.281 77.2487L119.587 79.2009L119.74 80.177L119.815 80.6653L119.833 80.7875C119.818 80.8313 119.837 80.8702 119.837 80.9118L119.864 81.1575L119.973 82.1403L120.001 82.386L120.007 82.4474L120.021 82.5641C120.032 82.6856 120.032 82.8081 120.02 82.9297C119.988 83.2467 119.878 83.5514 119.698 83.8158C119.518 84.0802 119.275 84.296 118.99 84.4432C118.705 84.5905 118.388 84.6645 118.068 84.6586C117.748 84.6527 117.436 84.567 117.159 84.4094C117.108 84.3804 117.059 84.3492 117.011 84.3161L116.977 84.2929L116.962 84.2828L116.839 84.1988C116.797 84.1654 116.752 84.1348 116.705 84.1072L116.526 84.005C116.407 83.9367 116.292 83.8668 116.151 83.7989L115.747 83.593L115.323 83.3921C114.178 82.8692 112.985 82.3285 111.772 81.8463L111.656 81.8048C111.677 81.7329 111.654 81.7808 111.656 81.7629L111.642 81.7558L111.614 81.7415L111.559 81.7131L111.339 81.6004L110.898 81.3747L110.012 80.9265C109.423 80.6295 108.806 80.3886 108.171 80.2071L107.229 79.8911C106.912 79.784 106.604 79.6814 106.253 79.5534L104.402 78.8592C101.933 77.9405 99.4574 77.0546 96.9635 76.2399L95.0898 75.6427L93.1933 75.0521L89.4061 73.8641C86.8832 73.0725 84.3629 72.2855 81.8376 71.5287C79.3123 70.7719 76.7805 70.0513 74.2391 69.3798C71.6989 68.7013 69.1501 68.0817 66.5804 67.54C61.8268 66.5056 57.0166 65.7381 52.1727 65.2411C50.2995 65.0364 48.4142 64.9516 46.5285 64.9872C45.3222 65.0275 44.1202 65.1611 42.9335 65.3869C42.5953 65.4374 42.35 65.5057 42.1638 65.5147C41.9805 65.5296 41.8683 65.5116 41.8292 65.4605C41.7516 65.3609 41.963 65.1179 42.481 64.7659C43.2706 64.2912 44.127 63.9376 45.0212 63.7171C46.4424 63.3623 47.901 63.1836 49.3639 63.185C50.4414 63.1698 51.5351 63.2146 52.6311 63.2903C53.7277 63.3676 54.8205 63.4657 55.9305 63.5828C58.1435 63.8187 60.3625 64.1426 62.5045 64.5259C67.4364 65.4053 72.3043 66.5674 77.0976 67.9222C81.8909 69.2786 86.6186 70.7951 91.3387 72.2908L94.8781 73.4073C96.055 73.7738 97.2535 74.1529 98.431 74.5476C100.793 75.3368 103.131 76.1798 105.456 77.045L107.183 77.6881L108.924 78.274C110.078 78.7262 111.329 78.9132 112.553 79.2016L112.581 79.2082L112.596 79.2114C112.591 79.2397 112.619 79.1763 112.621 79.1849L112.676 79.2042L112.787 79.2429C112.86 79.2699 112.935 79.2929 113.01 79.3152L113.46 79.4516L114.359 79.7327C114.958 79.9251 115.562 80.1186 116.162 80.3375C116.767 80.5618 117.365 80.782 118.005 81.0804L118.247 81.1943C118.334 81.2332 118.419 81.2769 118.502 81.3253L118.775 81.4839L118.911 81.5648L118.945 81.5852C118.575 82.0997 119.796 80.4477 118.12 82.7414L118.116 82.7475C118.113 82.7517 118.111 82.7564 118.11 82.7614C118.11 82.7614 118.109 82.7535 118.109 82.7558C118.11 82.7581 118.12 82.7641 118.114 82.7616C118.107 82.7605 118.099 82.7606 118.092 82.7618C115.243 83.1964 117.3 82.8741 116.664 82.9675L116.661 82.9533L116.656 82.9249L116.633 82.8114L116.545 82.3573C116.473 82.0102 116.417 81.6597 116.33 81.3131L116.164 80.2568C116.055 79.551 115.946 78.8433 115.836 78.1336L115.191 73.8739C115.175 73.7743 115.169 73.6736 115.173 73.5728L115.173 73.5589C115.183 73.2763 115.221 72.9953 115.287 72.72C115.324 72.5656 115.372 72.4137 115.429 72.2653C115.488 72.1109 115.561 71.9618 115.646 71.8198C115.814 71.5135 116.03 71.236 116.287 70.9981C116.564 70.7429 116.884 70.5394 117.232 70.3975C117.821 70.1673 118.458 70.0918 119.082 70.1783C119.556 70.2394 120.019 70.3633 120.459 70.5466C120.851 70.7061 121.228 70.898 121.587 71.1202L121.844 71.2863L122.05 71.4334L122.46 71.7277L123.274 72.3162C123.408 72.4151 123.545 72.5104 123.675 72.6121L124.061 72.9247L125.338 73.9632L126.565 75.0541C126.981 75.4105 127.365 75.7971 127.758 76.1752C128.148 76.5569 128.551 76.9253 128.92 77.3247L130.048 78.502L131.133 79.7138C131.496 80.1166 131.847 80.5276 132.195 80.9412C132.542 81.3556 132.903 81.7594 133.235 82.1846C135.955 85.5389 138.404 89.0657 140.759 92.6235C141.345 93.514 141.926 94.4082 142.493 95.3073L144.221 98.0425C144.322 98.2153 144.411 98.3953 144.485 98.5812C144.558 98.7796 144.618 98.9828 144.663 99.1893L144.7 99.3401L144.72 99.5068C144.732 99.6185 144.742 99.7305 144.75 99.8428C144.753 100.08 144.733 100.318 144.689 100.551C144.59 101.017 144.388 101.456 144.1 101.837C144.036 101.925 143.966 102.009 143.891 102.088C143.819 102.164 143.746 102.25 143.671 102.316C143.527 102.45 143.375 102.575 143.215 102.69C142.65 103.081 142.026 103.382 141.368 103.581C140.796 103.753 140.212 103.885 139.622 103.977C135.362 104.766 131.056 105.273 126.732 105.495C122.146 105.718 117.553 105.659 112.978 105.318C112.132 105.269 111.319 104.98 110.637 104.484C110.235 104.192 109.903 103.816 109.664 103.381C109.422 102.926 109.293 102.419 109.289 101.902C109.286 101.482 109.342 101.063 109.455 100.658C109.545 100.33 109.656 100.008 109.789 99.6943C110.014 99.1311 110.269 98.5806 110.539 98.0382C111.63 95.8664 113.066 93.8823 114.792 92.1627L115.235 94.598C111.987 93.197 108.609 92.1079 105.149 91.3456C99.758 90.1525 94.1831 89.6979 88.5915 89.6173C82.9933 89.5502 77.3631 89.7956 71.7638 90.2829C66.1609 90.7728 60.5808 91.5033 55.0232 92.4743C53.6352 92.7143 52.2493 92.9676 50.8655 93.234L48.7916 93.6435L47.7484 93.8552C47.3886 93.9278 47.0274 93.9939 46.665 94.0534C45.1891 94.3184 43.6901 94.4274 42.1933 94.3785C41.368 94.3531 40.5526 94.199 39.7771 93.9219L39.4621 93.7918C39.2449 93.6831 39.0348 93.5608 38.8332 93.4258C38.7311 93.3447 38.6305 93.2615 38.5313 93.1762C38.4376 93.0988 38.351 93.0132 38.2727 92.9204C38.1944 92.8374 38.1209 92.75 38.0526 92.6587C37.9163 92.4828 37.7907 92.2989 37.6765 92.108C36.9877 90.8931 36.7751 89.6482 36.6647 88.4741C36.5779 87.3305 36.5782 86.1814 36.6657 85.0366C36.7415 83.9224 36.8669 82.8352 37.0029 81.7704L37.2102 80.1913C37.277 79.6743 37.3282 79.1858 37.3663 78.6725C37.5128 76.6343 37.5211 74.5533 37.81 72.5339C37.9401 71.5314 38.1727 70.544 38.504 69.5871C38.5981 69.3542 38.68 69.1201 38.7841 68.8949C38.8961 68.6723 38.9987 68.4485 39.1179 68.2344C39.2489 68.0253 39.3746 67.8169 39.5077 67.6152C39.647 67.4182 39.8021 67.2327 39.9715 67.0604C40.4122 66.598 40.9616 66.2519 41.5695 66.0539C41.9505 65.9288 42.1546 65.9803 42.1514 66.1028C42.1492 66.143 42.1373 66.1822 42.1166 66.217C42.0815 66.269 42.0495 66.323 42.0206 66.3787C41.9341 66.4967 41.8105 66.646 41.6613 66.827C41.4868 67.0357 41.3245 67.2542 41.1752 67.4813C41.0001 67.7673 40.841 68.0627 40.6987 68.3661C40.4436 68.9146 40.249 69.4886 40.1185 70.0781C39.9864 70.7158 39.8993 71.3615 39.8578 72.0106C39.7588 73.3473 39.8088 74.7652 39.8491 76.229C39.8707 76.9654 39.8927 77.7138 39.8929 78.487C39.8878 78.8772 39.8896 79.2638 39.8663 79.6687L39.8338 80.2673L39.7926 80.8298C39.679 82.3201 39.557 83.7696 39.517 85.1818C39.4702 86.2992 39.5115 87.4179 39.6406 88.5277C39.7013 89.0134 39.8095 89.4919 39.9638 89.9561C40.0739 90.3081 40.2528 90.6347 40.4902 90.9171C40.5469 90.9927 40.5622 90.9705 40.579 90.9986C40.5846 91.0035 40.5825 91.0104 40.5931 91.0159L40.6298 91.0326C40.6537 91.0446 40.6765 91.0585 40.6982 91.074C40.7438 91.1056 40.8379 91.1282 40.9026 91.1626C40.9753 91.1951 41.0855 91.2142 41.174 91.2448C41.6444 91.3517 42.1251 91.4094 42.6082 91.417C43.7394 91.4273 44.8699 91.3341 45.9855 91.1388C45.9954 91.1182 46.0048 91.0991 46.0177 91.0775Z" fill="white"/>
</g>
<defs>
<filter id="filter0_d_5_19" x="-3.99999" y="0" width="181.075" height="180.548" filterUnits="userSpaceOnUse" color-interpolation-filters="sRGB">
<feFlood flood-opacity="0" result="BackgroundImageFix"/>
<feColorMatrix in="SourceAlpha" type="matrix" values="0 0 0 0 0 0 0 0 0 0 0 0 0 0 0 0 0 0 127 0" result="hardAlpha"/>
<feOffset dy="4"/>
<feGaussianBlur stdDeviation="2"/>
<feComposite in2="hardAlpha" operator="out"/>
<feColorMatrix type="matrix" values="0 0 0 0 0 0 0 0 0 0 0 0 0 0 0 0 0 0 0.25 0"/>
<feBlend mode="normal" in2="BackgroundImageFix" result="effect1_dropShadow_5_19"/>
<feBlend mode="normal" in="SourceGraphic" in2="effect1_dropShadow_5_19" result="shape"/>
</filter>
</defs>
</svg>
