<svg width="141" height="141" viewBox="0 0 141 141" fill="none" xmlns="http://www.w3.org/2000/svg">
<g filter="url(#filter0_d_5_38)">
<g clip-path="url(#clip0_5_38)">
<path d="M51.9039 81.1245C51.0273 80.7605 50.1537 80.3804 49.282 79.9594C48.8459 79.7476 48.4107 79.5291 47.9738 79.2825L47.6462 79.0981L47.3162 78.8947C47.0985 78.7674 46.8708 78.5978 46.6494 78.4451C46.4002 78.2733 46.2232 78.0155 46.1523 77.7212C46.0814 77.4269 46.1216 77.1168 46.2651 76.8503L46.283 76.8178C48.1763 73.3122 50.5608 70.0951 53.3642 67.2641L54.4291 66.2155C54.7931 65.8756 55.1814 65.561 55.5565 65.2329L56.1239 64.746L56.4076 64.5026C56.5021 64.4214 56.606 64.3515 56.7047 64.2754L57.9042 63.3807C58.1054 63.2335 58.3014 63.079 58.5069 62.938L59.1363 62.5327L60.3953 61.7237C60.8234 61.4679 61.2673 61.2384 61.7027 60.995C62.1432 60.7609 62.5689 60.4984 63.0289 60.3027L64.8188 59.4785L66.6615 58.7764C66.9657 58.6509 67.2826 58.5621 67.5969 58.4657L68.5401 58.1782L69.0118 58.0347L69.2476 57.963L69.4877 57.907L70.4478 57.6834L71.4078 57.4602C71.7288 57.3913 72.0551 57.3493 72.3784 57.2927L73.3503 57.1332L73.8361 57.0541L74.3258 57.006C74.9789 56.9459 75.6308 56.869 76.2841 56.8226L78.2473 56.7553C84.9276 56.6767 91.5638 58.5435 97.3385 61.8344C100.23 63.4851 102.913 65.4751 105.333 67.762C107.747 70.0481 109.902 72.5922 111.762 75.3486L110.882 74.8401L111.171 74.859L109.945 75.9041C110.295 71.9353 110.695 67.8972 111.611 63.9192C112.064 61.9277 112.643 59.9669 113.344 58.0487C114.049 56.133 114.868 54.2611 115.797 52.443L115.952 53.7703C114.007 51.4994 111.888 49.3838 109.614 47.4428C108.478 46.4766 107.292 45.5741 106.08 44.7112C104.854 43.8692 103.602 43.0643 102.305 42.341C96.6757 39.1757 90.2939 37.3536 83.8466 37.3111C80.6196 37.278 77.4015 37.655 74.2695 38.4328C71.1284 39.2113 68.0873 40.3487 65.2063 41.8225C59.4257 44.758 54.3001 48.9475 50.0227 53.8545C45.755 58.8133 42.2867 64.4073 39.743 70.435L39.7404 70.4411C39.6609 70.6274 39.5331 70.7891 39.3701 70.9094C39.2072 71.0298 39.0151 71.1044 38.8137 71.1257C38.6122 71.1469 38.4088 71.114 38.2243 71.0303C38.0399 70.9465 37.8811 70.8151 37.7645 70.6494C36.5781 68.9228 35.5231 67.1094 34.6083 65.2247C33.6858 63.372 32.8489 61.4932 32.0462 59.6071L34.2017 59.3511C33.976 60.701 33.7559 62.0519 33.5413 63.4038C33.3292 64.7561 33.1231 66.1094 32.923 67.4636C32.1933 72.4355 31.4723 77.4594 30.8592 82.3877C30.5679 84.7478 30.2893 86.6883 30.023 88.2739C29.8864 89.0664 29.7597 89.7708 29.6278 90.3936C29.5618 90.7028 29.4979 91.0126 29.435 91.2199C29.3696 91.449 29.2946 91.6721 29.2217 91.8992C28.7756 93.2575 28.83 93.7401 28.5609 92.4285C28.4827 91.9758 28.4418 91.5175 28.4384 91.0582C28.4375 90.8231 28.4366 90.5695 28.4357 90.2971L28.4472 89.4668C28.4735 88.2915 28.5486 86.8454 28.685 85.156C29.0255 80.8797 29.5688 76.2213 30.187 71.8296C30.7916 67.542 31.4569 63.2697 32.1831 59.0127L32.1839 59.008C32.2247 58.7687 32.3589 58.5554 32.557 58.415C32.755 58.2746 33.0007 58.2187 33.24 58.2595C33.3912 58.2861 33.5334 58.3499 33.6537 58.4452C33.774 58.5405 33.8688 58.6643 33.9293 58.8053C34.7181 60.6709 35.5383 62.5185 36.4324 64.3169C37.2988 66.1068 38.2992 67.8287 39.4251 69.4679L37.8678 69.6367C40.254 64.0719 43.3087 58.7758 47.1115 54.041C50.9026 49.3062 55.4144 45.1091 60.5684 41.8251C61.1685 41.4329 61.7914 41.07 62.4132 40.7C62.7256 40.5176 63.0456 40.3469 63.3623 40.1694L63.8393 39.9059L64.3247 39.6564C65.6187 38.9809 66.9464 38.3723 68.3027 37.8329C69.6504 37.2905 71.0272 36.8233 72.4267 36.4337C73.7981 36.0459 75.1912 35.7393 76.5986 35.5154C84.3157 34.2578 92.2317 35.249 99.4005 38.3704C101.18 39.1397 102.908 40.0248 104.572 41.0199C106.229 42.0176 107.826 43.1127 109.354 44.2995C110.881 45.4807 112.341 46.7455 113.727 48.088C115.111 49.4299 116.426 50.8371 117.679 52.2943C117.817 52.4555 117.905 52.6544 117.93 52.8656C117.955 53.0767 117.916 53.2906 117.819 53.4796L117.817 53.4813C116.758 55.5265 115.848 57.6451 115.092 59.8207L114.764 60.7932C114.659 61.1191 114.564 61.4483 114.464 61.7757L114.316 62.2676L114.183 62.7642L113.92 63.7587C113.594 65.0922 113.32 66.4413 113.087 67.8022C112.864 69.1658 112.675 70.5396 112.52 71.9235C112.366 73.3086 112.232 74.7018 112.103 76.1013C112.079 76.3651 111.952 76.6089 111.751 76.7808C111.549 76.9526 111.288 77.039 111.024 77.0214L110.735 77.0017C110.581 76.9906 110.431 76.9444 110.297 76.8669C110.163 76.7893 110.048 76.6823 109.961 76.5539C107.982 73.5881 105.637 70.8836 102.982 68.504C100.33 66.1279 97.3734 64.117 94.1891 62.5249C93.6951 62.2539 93.1745 62.0399 92.6598 61.813L91.8872 61.4738C91.758 61.4185 91.6309 61.3577 91.4998 61.3068L91.1039 61.1617L89.5202 60.5801C88.9858 60.4063 88.4438 60.2557 87.9061 60.0918C87.6355 60.016 87.3698 59.9207 87.0953 59.8605L86.2739 59.6709L85.4524 59.4808C85.3153 59.4501 85.179 59.415 85.0412 59.3878L84.6254 59.3192L82.9621 59.0437C82.4045 58.9775 81.8446 58.9291 81.2858 58.8702C80.7277 58.798 80.1656 58.7923 79.6043 58.7709C79.0429 58.7554 78.4813 58.7131 77.9201 58.7468L76.236 58.7987L74.5591 58.9596L74.1397 58.9994C74.0002 59.015 73.8624 59.043 73.7237 59.0642L72.8925 59.2004L72.0611 59.336C71.7838 59.3801 71.5134 59.4587 71.2391 59.5182C70.6939 59.6514 70.1423 59.7621 69.6017 59.9128L67.9911 60.4071C67.8575 60.4501 67.7211 60.485 67.5897 60.5345L67.1965 60.6857L66.41 60.9877L65.6231 61.2892C65.3652 61.4001 65.113 61.5245 64.8576 61.6413L64.0934 61.9968L63.7112 62.1744L63.5203 62.2636L63.336 62.3658L61.8601 63.1817C61.7379 63.251 61.612 63.3143 61.4928 63.3886L61.1389 63.6181L60.4308 64.0767L59.7222 64.5349C59.4855 64.687 59.2691 64.8684 59.0415 65.0336L57.6924 66.0495L56.4143 67.1552L56.0945 67.4314C55.9857 67.521 55.8819 67.6165 55.7834 67.7173L55.1832 68.3133L54.5826 68.909C54.384 69.1091 54.1757 69.3001 53.9956 69.5181C53.2551 70.3701 52.48 71.1934 51.817 72.1115C50.401 73.8769 49.235 75.8286 48.1109 77.7957L47.8817 76.7777C48.6179 77.2802 49.3952 77.7196 50.2054 78.0912C51.0351 78.4883 51.889 78.8565 52.7505 79.2104C54.4752 79.9168 56.2336 80.565 58.0024 81.1845C58.1573 81.2388 58.2902 81.3421 58.381 81.4788C58.4719 81.6155 58.5156 81.7782 58.5056 81.942C58.4956 82.1058 58.4324 82.2619 58.3257 82.3866C58.2189 82.5112 58.0744 82.5976 57.914 82.6327L57.8966 82.6364C56.9967 82.8311 56.091 82.9933 55.1996 83.2375C50.7788 84.3455 46.614 85.983 42.638 87.5874C38.665 89.2069 34.8646 90.8204 31.2066 92.1245C30.7897 92.2774 30.4146 92.4056 30.122 92.4911C29.8278 92.5803 29.6096 92.6478 29.4511 92.6998C29.1345 92.8038 29.0508 92.8317 29.1466 92.7368C29.1792 92.707 29.2646 92.6288 29.406 92.4994C29.5255 92.3893 29.6649 92.2423 29.8091 92.097C29.8826 92.0223 29.9617 91.9534 30.0457 91.8908C30.1614 91.81 30.2842 91.74 30.4128 91.6818C30.5893 91.5946 30.7793 91.5007 30.983 91.4001L31.3003 91.2485C31.3551 91.2229 31.4108 91.197 31.4673 91.1706L31.5099 91.1509C31.5158 91.1249 31.5358 91.1314 31.5481 91.12L31.6335 91.0766C32.2827 90.7438 32.9328 90.4002 33.5862 90.0564C34.2421 89.7138 34.9139 89.4021 35.5825 89.0678C36.9241 88.4113 38.2742 87.738 39.6496 87.087C42.3985 85.7855 45.2097 84.5047 48.1034 83.3913C51.1537 82.1954 54.3039 81.2716 57.517 80.6308L57.336 83.1143C55.5335 82.486 53.7391 81.8266 51.9609 81.1066C51.9422 81.1135 51.9232 81.1195 51.9039 81.1245Z" fill="white"/>
</g>
</g>
<defs>
<filter id="filter0_d_5_38" x="-4" y="0" width="148.258" height="148.258" filterUnits="userSpaceOnUse" color-interpolation-filters="sRGB">
<feFlood flood-opacity="0" result="BackgroundImageFix"/>
<feColorMatrix in="SourceAlpha" type="matrix" values="0 0 0 0 0 0 0 0 0 0 0 0 0 0 0 0 0 0 127 0" result="hardAlpha"/>
<feOffset dy="4"/>
<feGaussianBlur stdDeviation="2"/>
<feComposite in2="hardAlpha" operator="out"/>
<feColorMatrix type="matrix" values="0 0 0 0 0 0 0 0 0 0 0 0 0 0 0 0 0 0 0.25 0"/>
<feBlend mode="normal" in2="BackgroundImageFix" result="effect1_dropShadow_5_38"/>
<feBlend mode="normal" in="SourceGraphic" in2="effect1_dropShadow_5_38" result="shape"/>
</filter>
<clipPath id="clip0_5_38">
<rect width="100" height="100" fill="white" transform="translate(61.0758) rotate(37.6443)"/>
</clipPath>
</defs>
</svg>
