<svg width="114" height="114" viewBox="0 0 114 114" fill="none" xmlns="http://www.w3.org/2000/svg">
<g filter="url(#filter0_d_5_22)">
<path d="M75.4352 67.4306C75.5405 68.37 75.6303 69.3145 75.6833 70.2771C75.7088 70.7592 75.7281 71.2437 75.7235 71.7433L75.7205 72.1176L75.7021 72.5031C75.696 72.7541 75.6576 73.0342 75.6311 73.3007C75.6012 73.6006 75.4611 73.8788 75.2379 74.082C75.0146 74.2853 74.7238 74.3992 74.4211 74.402L74.384 74.402C70.4004 74.4348 66.4318 73.9006 62.5985 72.8155L61.1658 72.3904C60.6922 72.2362 60.2292 72.0487 59.7607 71.8792L59.0601 71.6182L58.7099 71.4877C58.5932 71.4443 58.4817 71.3873 58.3674 71.3377L57.0044 70.7213C56.7782 70.6166 56.5483 70.5198 56.3254 70.4083L55.6664 70.0541L54.3495 69.3446C53.9187 69.0941 53.5031 68.8171 53.0796 68.5543C52.6617 68.2826 52.2262 68.0374 51.8324 67.7302L50.2455 66.565L48.74 65.2951C48.4831 65.0901 48.2521 64.8564 48.0158 64.6286L47.3081 63.9439L46.9544 63.6015L46.7776 63.4303L46.6126 63.2478L45.9525 62.5178L45.293 61.7878C45.0775 61.5408 44.883 61.2764 44.677 61.0216L44.0675 60.2506L43.7633 59.8649L43.4845 59.4608C43.116 58.92 42.7336 58.3884 42.377 57.8409L41.3688 56.1609C38.0698 50.3721 36.4945 43.6873 36.5823 37.0696C36.6291 33.755 37.073 30.4583 37.9045 27.2495C38.738 24.0457 39.9221 20.9431 41.4356 17.9974L41.4157 19.0086L41.2927 18.7479L42.8003 19.3151C39.1575 20.9165 35.43 22.5077 31.5055 23.6198C29.5435 24.1814 27.5474 24.6183 25.5295 24.928C23.5118 25.2334 21.4775 25.4183 19.4374 25.4819L20.5241 24.7091C19.477 27.4962 18.65 30.3607 18.0509 33.2766C17.7546 34.7317 17.5383 36.1997 17.3693 37.6715C17.2251 39.1454 17.1259 40.6235 17.12 42.1022C17.0719 48.533 18.5632 54.9746 21.6436 60.6184C23.1752 63.4488 25.0612 66.0746 27.2565 68.4326C29.4567 70.7983 31.9227 72.9043 34.6057 74.7091C39.9701 78.3407 46.1152 80.7986 52.4781 82.172C58.8818 83.5121 65.4548 83.8497 71.9603 83.1726L71.9668 83.1719C72.1683 83.1518 72.3716 83.1856 72.5557 83.2699C72.7399 83.3542 72.8981 83.4858 73.0141 83.6513C73.1301 83.8168 73.1997 84.0101 73.2156 84.2112C73.2315 84.4123 73.1932 84.6139 73.1046 84.7952C72.1671 86.6595 71.0903 88.4508 69.8831 90.1541C68.7077 91.8488 67.468 93.4813 66.2055 95.0876L64.9391 93.3305C66.2297 92.8788 67.5185 92.4218 68.8054 91.9595C70.0915 91.4948 71.3755 91.0245 72.6575 90.5484C77.3618 88.7963 82.1073 87.0118 86.717 85.1788C88.9234 84.2992 90.7565 83.6099 92.273 83.0804C93.0327 82.8189 93.7103 82.5909 94.3192 82.4068C94.6217 82.3158 94.9238 82.2227 95.1356 82.178C95.3677 82.125 95.5993 82.0832 95.8333 82.0377C97.2378 81.7742 97.6338 81.495 96.6161 82.3598C96.2577 82.6454 95.8764 82.9013 95.476 83.1249C95.2707 83.2386 95.0491 83.3613 94.8113 83.4929L94.079 83.8818C93.0377 84.4234 91.7357 85.0526 90.1912 85.7453C86.284 87.5027 81.9442 89.2667 77.8016 90.8373C73.7568 92.3698 69.696 93.842 65.6191 95.2537L65.6146 95.2552C65.3854 95.3346 65.1338 95.32 64.9152 95.2147C64.6966 95.1094 64.5288 94.922 64.4488 94.6937C64.399 94.549 64.3861 94.3944 64.4113 94.2436C64.4365 94.0929 64.499 93.9508 64.5932 93.8302C65.8445 92.246 67.0649 90.6431 68.2066 88.9992C69.3541 87.3837 70.3774 85.6839 71.2675 83.9145L72.1683 85.1917C66.1442 85.7837 60.0319 85.6637 54.0491 84.6215C48.0721 83.5896 42.217 81.6707 36.8507 78.753C36.2172 78.4181 35.5984 78.0491 34.9739 77.6845C34.6632 77.4996 34.359 77.3026 34.0506 77.1116L33.5893 76.8222L33.1362 76.5186C31.9193 75.7146 30.7446 74.8489 29.6167 73.925C28.4903 73.0102 27.4157 72.0338 26.3979 71.0003C25.3954 69.9905 24.4534 68.9228 23.5769 67.8027C18.7446 61.676 15.7842 54.2955 15.0496 46.5433C14.8623 44.6215 14.8017 42.6897 14.868 40.7603C14.9395 38.8352 15.1257 36.9162 15.4256 35.0134C15.7212 33.1145 16.1222 31.2335 16.6266 29.379C17.1321 27.528 17.7278 25.705 18.3971 23.9119C18.4712 23.7135 18.603 23.5417 18.7758 23.4185C18.9486 23.2953 19.1544 23.2264 19.3669 23.2204L19.3691 23.2208C21.6711 23.1619 23.9656 22.9384 26.235 22.5521L27.2451 22.3716C27.5809 22.3063 27.9147 22.2306 28.2497 22.1605L28.7518 22.0535L29.2509 21.9311L30.2484 21.6826C31.5732 21.3266 32.8864 20.9174 34.19 20.4666C35.4911 20.0058 36.7849 19.5107 38.0713 18.9814C39.3579 18.4502 40.6421 17.898 41.9291 17.3378C42.1718 17.2324 42.4464 17.2256 42.6943 17.3189C42.9422 17.4122 43.1438 17.5981 43.2563 17.8371L43.3786 18.0982C43.4436 18.2384 43.4757 18.3914 43.4727 18.5457C43.4697 18.7 43.4315 18.8515 43.3611 18.9889C41.7226 22.1399 40.4894 25.4844 39.6908 28.9435C38.8932 32.3974 38.5632 35.9425 38.7096 39.4848C38.7113 40.0458 38.7758 40.6027 38.826 41.1606L38.9027 41.9974C38.9168 42.1367 38.9251 42.2768 38.9439 42.4155L39.0084 42.8305L39.2651 44.4913C39.3715 45.0409 39.5017 45.5859 39.6183 46.1337C39.6828 46.4061 39.7279 46.6836 39.8079 46.9519L40.0392 47.7595L40.2701 48.5673C40.3095 48.7017 40.3447 48.8374 40.3875 48.9706L40.5286 49.3662L41.0917 50.9493C41.3034 51.4675 41.5318 51.9791 41.7505 52.4947C41.9571 53.0162 42.224 53.5092 42.4767 54.0091C42.7346 54.5062 42.9691 55.0162 43.27 55.4896L44.1298 56.9335L45.0814 58.3189L45.3191 58.6655C45.4002 58.7797 45.4913 58.8864 45.5769 58.9972L46.098 59.6567L46.6188 60.3167C46.7915 60.5375 46.991 60.7355 47.1757 60.9461C47.556 61.3577 47.9195 61.7856 48.3128 62.1848L49.5243 63.3521C49.6265 63.4479 49.7231 63.5501 49.8299 63.641L50.1524 63.9112L50.797 64.4522L51.4413 64.9937C51.6631 65.1653 51.8939 65.3255 52.1197 65.4921L52.8003 65.9879L53.1405 66.2359L53.311 66.3596L53.4895 66.4713L54.9173 67.3666C55.0371 67.4399 55.1533 67.5192 55.276 67.5876L55.648 67.7859L56.3918 68.1833L57.1354 68.5812C57.383 68.7145 57.6464 68.8161 57.9011 68.9353L59.4425 69.6239L61.0283 70.2075L61.4246 70.3537C61.5557 70.4056 61.6894 70.4503 61.8253 70.4877L62.6371 70.7249L63.4489 70.9625C63.7201 71.0397 63.9879 71.1296 64.2658 71.1819C65.3695 71.4185 66.465 71.699 67.5891 71.8362C69.8189 72.2232 72.0908 72.3025 74.3559 72.3379L73.5759 73.0269C73.6597 72.1434 73.6683 71.2543 73.6017 70.3692C73.5482 69.4548 73.4575 68.5331 73.3505 67.6117C73.1348 65.768 72.8519 63.923 72.5388 62.0826C72.5114 61.9214 72.5375 61.7558 72.6132 61.6109C72.689 61.466 72.8101 61.3498 72.9584 61.2798C73.1066 61.2098 73.2737 61.1899 73.4345 61.2232C73.5952 61.2564 73.7407 61.3409 73.8489 61.4639L73.8606 61.4774C74.4662 62.1687 75.046 62.8808 75.6908 63.541C78.7982 66.8644 82.2453 69.7104 85.572 72.4074C88.9106 75.0946 92.1605 77.6343 95.0707 80.1982C95.4061 80.4884 95.6996 80.754 95.916 80.9681C96.1363 81.1818 96.3009 81.3397 96.423 81.4531C96.6672 81.6792 96.7321 81.7388 96.6027 81.7008C96.5609 81.6867 96.4511 81.6498 96.2695 81.5886C96.1154 81.5373 95.9193 81.4863 95.7224 81.4303C95.6215 81.4022 95.5229 81.3663 95.4275 81.323C95.3009 81.261 95.1802 81.1874 95.0671 81.1033C94.9054 80.9912 94.7314 80.8706 94.5449 80.7413L94.2587 80.5373C94.2098 80.5018 94.1602 80.4657 94.1098 80.4291L94.0719 80.4014C94.0463 80.4087 94.0423 80.3883 94.0264 80.3829L93.9471 80.3293C93.342 79.923 92.7269 79.521 92.11 79.1163C91.493 78.7088 90.8954 78.2726 90.2795 77.85C89.0562 76.9952 87.814 76.1412 86.5792 75.2543C84.1109 73.4819 81.6306 71.6454 79.2568 69.6563C76.7351 67.5704 74.4034 65.2666 72.2889 62.7719L74.5499 61.7367C74.8716 63.6107 75.1623 65.4926 75.392 67.3894C75.4071 67.4024 75.4215 67.4161 75.4352 67.4306Z" fill="white"/>
</g>
<defs>
<filter id="filter0_d_5_22" x="-4" y="2.29244e-05" width="121.998" height="121.634" filterUnits="userSpaceOnUse" color-interpolation-filters="sRGB">
<feFlood flood-opacity="0" result="BackgroundImageFix"/>
<feColorMatrix in="SourceAlpha" type="matrix" values="0 0 0 0 0 0 0 0 0 0 0 0 0 0 0 0 0 0 127 0" result="hardAlpha"/>
<feOffset dy="4"/>
<feGaussianBlur stdDeviation="2"/>
<feComposite in2="hardAlpha" operator="out"/>
<feColorMatrix type="matrix" values="0 0 0 0 0 0 0 0 0 0 0 0 0 0 0 0 0 0 0.25 0"/>
<feBlend mode="normal" in2="BackgroundImageFix" result="effect1_dropShadow_5_22"/>
<feBlend mode="normal" in="SourceGraphic" in2="effect1_dropShadow_5_22" result="shape"/>
</filter>
</defs>
</svg>
