<svg width="160" height="160" viewBox="0 0 160 160" fill="none" xmlns="http://www.w3.org/2000/svg">
<g filter="url(#filter0_d_5_25)">
<path d="M113.67 61.3399C115.567 63.6398 117.19 66.1295 118.547 68.742L119.067 69.7916C119.24 70.1417 119.42 70.4881 119.573 70.8474C119.888 71.5615 120.234 72.2604 120.529 72.9803C121.022 74.0769 121.45 75.2021 121.851 76.3367C122.036 76.9093 122.235 77.4782 122.408 78.0553L122.892 79.7985L119.731 79.7272C120.458 76.888 121.417 74.1124 122.585 71.4464C123.738 68.7715 125.088 66.2045 126.518 63.7081C127.762 61.5474 129.068 59.4389 130.384 57.3549L130.415 57.3054L130.43 57.2777C130.439 57.2595 130.446 57.2436 130.451 57.2333C130.46 57.2157 130.447 57.2168 130.433 57.3289C130.429 57.3795 130.422 57.4814 130.446 57.6094C130.467 57.7554 130.528 57.9299 130.646 58.1181C130.707 58.2043 130.769 58.292 130.849 58.3622C130.916 58.4315 130.989 58.4853 131.073 58.5382C131.246 58.6457 131.393 58.6885 131.474 58.7058C131.552 58.7227 131.575 58.7204 131.547 58.7196L131.353 58.7123L130.888 58.6953L129.959 58.6609L126.243 58.5072C121.29 58.2875 116.349 58.0183 111.415 57.7806C109.927 57.7092 108.43 57.5073 106.965 57.3095C105.563 57.1191 104.667 56.6324 104.12 56.0183C103.324 55.1242 104.182 54.2311 106.197 54.0929C107.47 54.0053 108.857 54.0652 110.165 54.1774C116.191 54.6888 122.198 54.9668 128.208 54.9153C129.036 54.9068 129.883 54.8864 130.722 54.8869C130.931 54.889 131.141 54.8912 131.349 54.8934L131.678 54.9021C131.827 54.9103 132.059 54.9166 132.396 55.0039C132.564 55.0486 132.758 55.1179 132.959 55.2265C133.166 55.3365 133.35 55.4798 133.517 55.6364C133.87 55.9741 134.106 56.4523 134.188 56.8466C134.274 57.2441 134.256 57.5778 134.215 57.8293C134.174 58.0853 134.108 58.302 134.036 58.4821C133.92 58.777 133.789 59.0129 133.64 59.2404L133.583 59.3251L133.546 59.3773L133.475 59.4741L133.335 59.6683L132.779 60.4496C132.414 60.9733 132.055 61.5012 131.705 62.0338C131.007 63.0994 130.333 64.1798 129.691 65.2734C128.397 67.4573 127.22 69.6878 126.078 71.9184C125.378 73.2988 124.742 74.7122 124.187 76.1541C123.636 77.5973 123.155 79.0641 122.732 80.545L122.731 80.5493C122.507 81.3307 121.688 81.7802 120.901 81.5531C120.371 81.4002 119.99 80.9774 119.866 80.4804L119.418 78.6622L119.071 77.4749C119.013 77.2772 118.959 77.0779 118.896 76.8813L118.695 76.2954L118.291 75.1232L117.835 73.9688L117.605 73.3918L117.35 72.8252L116.84 71.6912L116.278 70.581L115.997 70.0253L115.69 69.4837L115.077 68.3989L114.413 67.3444L114.081 66.8166L113.724 66.3052L113.009 65.2829L112.245 64.2966L111.862 63.8034C111.73 63.6421 111.591 63.4877 111.456 63.3294L110.64 62.384C110.357 62.0794 110.065 61.7829 109.778 61.4816C107.923 59.5742 106.129 57.8482 104.546 56.049C103.823 55.2117 104.254 54.5438 105.44 55.0702C106.29 55.4212 107.096 55.8923 107.918 56.369C108.324 56.613 108.708 56.8915 109.103 57.16L109.691 57.5719C109.882 57.7147 110.065 57.8673 110.251 58.016C110.556 58.2623 110.857 58.5178 111.155 58.7791C111.453 59.0409 111.723 59.3321 112.005 59.6128C112.281 59.899 112.567 60.1773 112.831 60.4737C113.095 60.7712 113.358 61.0685 113.62 61.3649C113.636 61.3567 113.651 61.3491 113.67 61.3399Z" fill="white"/>
<path d="M91.5774 79.079C90.0317 79.2561 88.5476 79.5327 87.1772 79.9951C85.8149 80.469 84.5852 81.1516 83.5119 82.0585L83.6202 81.9535C82.9656 82.6184 82.3725 83.5046 81.7104 84.4763C81.046 85.4416 80.2934 86.5214 79.218 87.4509L79.1888 87.4761C79.1587 87.5021 79.1265 87.527 79.0946 87.5494C77.6919 88.5264 76.1144 89.2117 74.5269 89.6486C73.5294 89.914 72.5278 90.0933 71.5341 90.2206C70.5399 90.3448 69.557 90.4056 68.583 90.4499C66.6376 90.5277 64.7368 90.5054 62.8842 90.5532C60.6877 90.6096 58.5396 90.7441 56.5683 91.2352C55.585 91.4808 54.653 91.819 53.8047 92.2732C52.9556 92.7263 52.1919 93.2965 51.5227 93.9743L51.6542 93.824C51.2521 94.3597 50.9392 94.9276 50.724 95.5329C50.5091 96.1386 50.3951 96.7871 50.3571 97.4765C50.279 98.8575 50.5193 100.385 50.7575 102.01C50.9944 103.634 51.2278 105.39 51.1035 107.23C51.0426 108.146 50.8899 109.077 50.6303 109.982C50.372 110.886 50.0084 111.761 49.5672 112.582C49.1194 113.416 48.0747 113.726 47.2338 113.276C47.0622 113.184 46.9124 113.067 46.7864 112.933L46.7613 112.905C44.9115 110.917 42.8752 109.124 40.6701 107.657C39.566 106.932 38.4212 106.279 37.24 105.772C36.943 105.656 36.6483 105.526 36.3509 105.42C36.0529 105.321 35.7555 105.205 35.4584 105.128C35.1606 105.035 34.8663 104.968 34.5761 104.903C34.4363 104.88 34.2864 104.844 34.1553 104.828L33.9592 104.801L33.8776 104.794L33.8411 104.79C33.8428 104.791 33.8445 104.791 33.8463 104.79L32.1763 103.595C31.5168 101.83 31.1033 100.014 30.8982 98.1864C30.7027 96.3581 30.7045 94.5179 30.9028 92.6929C31.1584 90.467 31.6957 88.2546 32.6172 86.1609L32.7866 85.7676L32.9781 85.3822C33.1088 85.1266 33.2303 84.867 33.3703 84.6154C33.6594 84.116 33.9425 83.6136 34.2802 83.1391C34.5916 82.6501 34.9707 82.2014 35.3298 81.7419C35.7243 81.3075 36.1043 80.8604 36.5449 80.4654C36.9599 80.0464 37.4334 79.6876 37.892 79.3139C38.132 79.1404 38.3789 78.9754 38.623 78.807C38.7466 78.725 38.8658 78.6361 38.9933 78.5604L39.3791 78.3383C40.3967 77.7229 41.5049 77.2771 42.625 76.9144C44.8838 76.229 47.233 76.0271 49.5011 76.1661L49.3333 76.1628C51.0645 76.1245 52.7079 76.3088 54.2862 76.5201C55.8646 76.734 57.3844 76.9842 58.8603 77.1448C60.3338 77.3059 61.7652 77.3781 63.1037 77.2386C64.443 77.1019 65.6743 76.7445 66.7597 76.118L66.5979 76.2222C67.2978 75.7211 67.93 74.902 68.5778 73.884C68.9045 73.379 69.2373 72.8324 69.6182 72.2629C69.7143 72.1204 69.8063 71.9817 69.9219 71.8206L70.0878 71.5896L70.2588 71.3855L70.9466 70.572C71.1688 70.2926 71.4304 70.0572 71.6758 69.8035L72.0498 69.4295L72.2371 69.2429L72.4407 69.069L73.2606 68.3786C73.5385 68.1533 73.8461 67.9579 74.1388 67.748C75.3369 66.9452 76.6591 66.2787 78.0436 65.8558C79.4251 65.4285 80.8354 65.1956 82.2164 65.0879C83.6016 64.9747 84.9487 65.009 86.269 65.0681C88.9101 65.1963 91.4275 65.5037 93.8962 65.6248C95.7052 65.7208 97.4918 65.7664 99.2509 65.6693C101.009 65.5743 102.74 65.3339 104.414 64.9156C107.608 64.0948 109.703 63.3721 111.201 63.1447C112.296 62.9848 112.565 63.3451 111.986 64.1303C111.693 64.5166 111.209 65.0402 110.462 65.5615C110.091 65.8261 109.68 66.1321 109.184 66.3934C108.692 66.6603 108.161 66.9723 107.545 67.2164C106.016 67.9063 104.312 68.4105 102.572 68.7432C100.83 69.0772 99.0481 69.2233 97.3373 69.2346C95.8544 69.2384 94.3885 69.1655 92.9425 69.0588C91.4952 68.952 90.0757 68.8027 88.6729 68.6795C85.8747 68.4293 83.1294 68.2457 80.6033 68.7292C78.0847 69.1992 75.8292 70.389 74.0709 72.2752L73.7334 72.6165C73.6259 72.734 73.5289 72.8596 73.4259 72.9805C73.2252 73.2243 73.0129 73.4672 72.8196 73.7097C72.6587 73.9404 72.4698 74.2227 72.2912 74.5057L71.7396 75.3891C71.3628 75.9949 70.959 76.634 70.466 77.2687C69.9811 77.9027 69.3804 78.5296 68.6667 79.0606C68.6334 79.0854 68.5991 79.1081 68.5641 79.1286L68.5327 79.1469C67.6064 79.6886 66.6014 80.1004 65.577 80.3805C64.5515 80.6631 63.5112 80.8018 62.4908 80.866C60.4458 80.9852 58.4874 80.7808 56.6103 80.5599C54.1186 80.2615 51.6651 79.9037 49.4484 79.9759C49.4093 79.9772 49.3704 79.9769 49.3318 79.9752L49.2809 79.9726C47.7314 79.8966 46.2276 79.9823 44.8174 80.2418C43.7351 80.4487 42.6857 80.7802 41.7038 81.255C40.7259 81.7365 39.8259 82.3684 39.0182 83.1134C37.3996 84.6041 36.1819 86.5745 35.4148 88.7381C34.6381 90.8993 34.2574 93.24 34.268 95.5761C34.2751 97.9086 34.6385 100.258 35.4342 102.396L33.944 101.33L34.0751 101.338L34.1678 101.346L34.3462 101.365L34.6707 101.411C34.8865 101.443 35.0815 101.487 35.2877 101.526C35.6845 101.617 36.0764 101.714 36.4529 101.833C36.838 101.94 37.1992 102.084 37.5702 102.212C37.9349 102.351 38.2886 102.507 38.6475 102.655C40.0591 103.283 41.3698 104.062 42.6105 104.915C45.0391 106.6 47.2067 108.577 49.1611 110.725L46.707 111.007C47.3937 109.767 47.7973 108.42 47.9021 106.982C48.0159 105.542 47.8451 104.025 47.6238 102.424C47.4118 100.824 47.1306 99.1157 47.2474 97.2597C47.3081 96.3369 47.4817 95.382 47.8184 94.4721C48.1531 93.5621 48.6417 92.7117 49.2206 91.9659L49.2547 91.9221C49.2801 91.8893 49.3109 91.8564 49.3404 91.8291L50.0418 91.1871C51.0567 90.3206 52.2204 89.6291 53.4337 89.1303C54.6482 88.6283 55.9047 88.3097 57.1476 88.1028C59.64 87.6944 62.0775 87.6934 64.446 87.6795C66.8135 87.6695 69.1352 87.6762 71.355 87.3771C73.5692 87.0838 75.6728 86.4419 77.3885 85.2197L77.2957 85.2937C78.0254 84.667 78.647 83.8106 79.281 82.8701C79.9182 81.9326 80.5763 80.8969 81.4794 79.951L81.4874 79.9426C81.5081 79.9209 81.531 79.899 81.5531 79.8795C82.6541 78.9111 83.9287 78.1337 85.2661 77.5721C86.6047 77.0066 87.9958 76.6453 89.3751 76.3976C92.1408 75.9101 94.8626 75.8231 97.5268 75.6357C100.918 75.4172 104.143 75.09 107.163 74.3588C110.188 73.6523 112.975 72.5237 115.53 71.1967C116.693 70.572 117.359 70.4024 117.449 70.6723C117.492 70.8049 117.386 71.043 117.115 71.3768C116.979 71.5437 116.802 71.7345 116.583 71.9475C116.363 72.1593 116.084 72.3732 115.767 72.6155C113.962 73.9665 111.925 75.15 109.728 76.029L108.903 76.3568L108.063 76.6487C107.504 76.8526 106.93 77.001 106.361 77.1747C105.215 77.4765 104.055 77.7453 102.896 77.9378C99.0797 78.6143 95.1716 78.5811 91.6019 79.0217C91.5944 79.041 91.5873 79.059 91.5774 79.079Z" fill="white"/>
</g>
<defs>
<filter id="filter0_d_5_25" x="-3.99999" y="0" width="167.925" height="167.431" filterUnits="userSpaceOnUse" color-interpolation-filters="sRGB">
<feFlood flood-opacity="0" result="BackgroundImageFix"/>
<feColorMatrix in="SourceAlpha" type="matrix" values="0 0 0 0 0 0 0 0 0 0 0 0 0 0 0 0 0 0 127 0" result="hardAlpha"/>
<feOffset dy="4"/>
<feGaussianBlur stdDeviation="2"/>
<feComposite in2="hardAlpha" operator="out"/>
<feColorMatrix type="matrix" values="0 0 0 0 0 0 0 0 0 0 0 0 0 0 0 0 0 0 0.25 0"/>
<feBlend mode="normal" in2="BackgroundImageFix" result="effect1_dropShadow_5_25"/>
<feBlend mode="normal" in="SourceGraphic" in2="effect1_dropShadow_5_25" result="shape"/>
</filter>
</defs>
</svg>
