<svg width="141" height="141" viewBox="0 0 141 141" fill="none" xmlns="http://www.w3.org/2000/svg">
<g filter="url(#filter0_d_5_35)">
<g clip-path="url(#clip0_5_35)">
<path d="M81.3016 110.224C78.5966 106.387 76.1233 102.348 74.1601 98.0604L73.7875 97.2594C73.6652 96.9916 73.5554 96.7183 73.4387 96.4481L72.7501 94.8222L72.1152 93.1762C72.0115 92.9012 71.8989 92.6292 71.8026 92.3518L71.5117 91.5202C70.7116 89.3097 70.0566 87.0574 69.4208 84.804L68.9516 83.0028L68.7182 82.1014L68.5034 81.1962L68.0731 79.3854L67.6869 77.5557L67.4963 76.6402L67.3343 75.7202C67.2291 75.1067 67.1113 74.4948 67.0156 73.8804C66.8408 72.6494 66.6355 71.423 66.5015 70.1906C66.3187 68.8212 66.2044 67.4466 66.0762 66.0732L65.9299 64.0108C65.8787 63.3234 65.858 62.6354 65.8207 61.9477C65.6957 59.1968 65.6556 56.4451 65.664 53.6983C65.659 53.0109 65.6737 52.3251 65.6803 51.6386C65.6878 50.9521 65.6954 50.2656 65.7142 49.5801L65.7981 45.4661C65.8286 44.096 65.8373 42.7237 65.8816 41.3557L66.0015 37.2515C66.0072 37.0611 66.0576 36.875 66.1486 36.7083C66.2395 36.5416 66.3686 36.3989 66.5253 36.2918C66.6819 36.1846 66.8619 36.116 67.0507 36.0914C67.2395 36.0668 67.4318 36.0869 67.6122 36.1501L67.6953 36.1802C70.8898 37.3201 74.1069 38.3893 77.4051 39.159L77.5594 39.1957L77.598 39.205C77.6011 39.2056 77.6182 39.21 77.6099 39.2076L77.5815 39.2005C77.4716 39.1802 77.3591 39.1819 77.2502 39.2054C77.1414 39.229 77.0385 39.2739 76.9475 39.3375C76.8076 39.4347 76.7022 39.5737 76.6461 39.7348C76.5866 39.9078 76.5847 40.0959 76.6408 40.2711C76.6524 40.3136 76.669 40.3546 76.6905 40.3932C76.7066 40.4292 76.7267 40.4632 76.7505 40.4947L76.6668 40.3784L76.4765 40.1115L76.0942 39.5789C75.5879 38.8664 75.0885 38.149 74.5963 37.4267C73.6128 35.9816 72.6601 34.5162 71.7383 33.0307C70.813 31.548 69.919 30.0463 69.0565 28.5257C68.1812 27.0129 67.3392 25.4811 66.5305 23.9306C65.6793 22.3613 64.9262 20.7414 64.2757 19.0802C63.5831 17.3332 63.1715 15.4896 63.0561 13.6184L65.6479 14.4186L62.9893 18.0068C61.8287 19.6019 60.6081 21.1527 59.4095 22.7198L57.6091 25.0685L56.7087 26.2428L55.8315 27.4343C53.5015 30.6184 51.2448 33.8569 48.9138 37.0407L45.4291 41.8253L43.6863 44.2174L42.8149 45.4135L42.7604 45.4882L42.7332 45.5256L42.7264 45.5349C44.7136 44.674 39.5017 42.4394 40.6578 43.6101L40.6765 43.5944L40.8264 43.4688L41.1264 43.2179C41.3243 43.0479 41.5323 42.8907 41.7376 42.7301C42.5548 42.0812 43.4102 41.4817 44.2994 40.9349C45.1867 40.3826 46.1102 39.8903 47.064 39.4614C48.9797 38.6129 50.9904 37.9936 53.0549 37.6163C53.2981 37.5725 53.5488 37.5897 53.7848 37.6664C54.0207 37.7431 54.2345 37.8769 54.407 38.0558C54.5795 38.2347 54.7054 38.4532 54.7734 38.6918C54.8414 38.9303 54.8494 39.1815 54.7967 39.4228L54.7914 39.4444C54.5704 40.4289 54.3216 41.407 54.1286 42.3987C54.0279 42.8936 53.9206 43.3871 53.8252 43.8832L53.7585 44.2564C53.7251 44.254 53.7477 44.2623 53.7395 44.2648L53.7367 44.2763L53.7312 44.2994L53.7201 44.3455L53.698 44.4378L53.6537 44.6223L53.4763 45.361C53.2281 46.3444 53.0577 47.344 52.8892 48.3435C52.7249 49.3442 52.5986 50.3508 52.5 51.3609C52.275 53.3777 52.136 55.4045 52.0226 57.4318C51.9832 58.4468 51.9263 59.4607 51.9137 60.4769C51.904 60.9847 51.8881 61.4924 51.8835 62.0004L51.8782 63.5245C51.8701 64.0324 51.876 64.5406 51.8835 65.0487L51.9029 66.573L51.9514 68.0971L51.9755 68.8592L52.015 69.6208L52.0937 71.1441L52.195 72.6663C52.2528 73.6819 52.3575 74.6942 52.4404 75.7083C52.8278 79.7611 53.4258 83.7929 54.2319 87.7872C55.196 92.5155 56.4471 97.183 57.978 101.764C59.4574 106.09 60.4538 108.892 60.9532 110.703C61.3146 112.023 61.0951 112.133 60.3939 111.172C59.8875 110.458 59.4308 109.71 59.0274 108.933C58.8923 108.68 58.7495 108.412 58.5989 108.129C58.4489 107.846 58.3104 107.54 58.1533 107.225C57.8554 106.587 57.5252 105.893 57.2141 105.126C56.3863 103.199 55.643 101.135 54.9442 99.0398C54.2565 96.9402 53.6577 94.7957 53.1279 92.6992C52.0408 88.287 51.1957 83.8207 50.5964 79.3202L50.4822 78.4776L50.3844 77.6333L50.1917 75.9443C50.0852 74.8163 49.9651 73.6895 49.8879 72.5594C49.7063 70.3012 49.6158 68.0377 49.5698 65.7749C49.4886 61.2474 49.6723 56.7213 50.1201 52.2199C50.2415 51.0955 50.3611 49.9712 50.5079 48.8496C50.569 48.2873 50.6245 47.7238 50.7021 47.1634L50.7563 46.7424C50.7675 46.6725 50.775 46.6019 50.7787 46.5311L50.8096 46.3212C50.8422 46.0399 50.8658 45.7569 50.8943 45.4746L51.0945 43.7839L51.0976 43.7574C51.092 43.7517 51.1123 43.7513 51.0854 43.7416L51.0876 43.7285L51.0965 43.6761L51.1141 43.5713L51.149 43.3616C51.1705 43.2215 51.1976 43.0823 51.2236 42.943L51.3798 42.1069C51.5765 40.9897 51.8235 39.882 52.0541 38.7704L53.5867 40.3837C52.8021 40.5488 52.0237 40.7402 51.2577 40.9738C50.4924 41.2096 49.7414 41.4877 49.0038 41.7958C47.8197 42.299 46.6718 42.8822 45.5679 43.5414C45.2953 43.7145 45.0159 43.8778 44.7501 44.062L44.3467 44.3314L43.9525 44.6138L43.5597 44.8983L43.1788 45.1981C43.0505 45.2963 42.9303 45.4043 42.8055 45.5066L42.6199 45.6619L42.5271 45.7394L42.5039 45.7588C42.3836 45.7479 42.8925 45.6952 41.7603 46.0857C41.5354 46.1118 41.307 46.0831 41.0946 46.0022C40.8822 45.9212 40.692 45.7903 40.5403 45.6205C40.3886 45.4508 40.2797 45.2473 40.2231 45.0274C40.1664 44.8074 40.1636 44.5775 40.2148 44.3571C40.6812 43.3474 40.3454 44.0753 40.4501 43.8492L40.4525 43.8459L40.462 43.8329L40.4998 43.7812C42.112 41.5721 43.7294 39.3897 45.3295 37.3083C48.3948 33.2719 51.5383 29.2809 54.5611 25.1947C56.0496 23.1347 57.513 21.0546 58.9857 18.9807L59.5341 18.2001L60.0969 17.43L61.2213 15.8891L63.4692 12.8062C63.6218 12.597 63.8357 12.4405 64.0817 12.3583C64.3277 12.2761 64.5937 12.2721 64.8434 12.3469C65.0931 12.4216 65.3143 12.5715 65.4767 12.776C65.6391 12.9806 65.7349 13.2297 65.7508 13.4894L65.752 13.5109C65.8616 15.0545 66.1963 16.5757 66.7455 18.0262C67.322 19.5453 67.9852 21.0307 68.732 22.475C69.4748 23.9589 70.246 25.4281 71.0456 26.8825C71.8472 28.3354 72.689 29.7655 73.5494 31.1832C74.4628 32.6872 75.4194 34.1665 76.4046 35.6278C76.8968 36.3588 77.3982 37.0838 77.9088 37.8029C78.162 38.1639 78.4218 38.5202 78.6802 38.8777L78.7763 39.0123C78.7763 39.0123 78.8461 39.1119 78.8865 39.182C78.9327 39.2595 78.972 39.3408 79.0039 39.4251C79.1398 39.7759 79.1549 40.161 79.0469 40.5192C78.9408 40.8657 78.7263 41.1682 78.4348 41.3824C78.1338 41.6034 77.7664 41.7164 77.3914 41.7033C77.3033 41.7003 77.2156 41.6903 77.129 41.6732L77.0648 41.6608L77.0401 41.655L76.9989 41.6452L76.8342 41.6056L76.5046 41.5263L75.8466 41.3627C75.4084 41.2513 74.9712 41.136 74.5348 41.0169C73.6623 40.7782 72.7942 40.523 71.9303 40.2515C71.4986 40.1154 71.0681 39.9755 70.6386 39.832L69.9958 39.6123L69.3596 39.3733C68.5129 39.0506 67.6726 38.712 66.8386 38.3576L68.3443 37.4052L67.7246 45.5722L67.5963 47.614C67.556 48.2947 67.5357 48.9758 67.5043 49.6566C67.4724 50.3376 67.4519 51.0182 67.431 51.6988C67.4111 52.3795 67.3832 53.0603 67.3747 53.7405C67.2983 56.5281 67.3365 59.3152 67.4403 62.0971C67.4841 63.4888 67.5811 64.8768 67.6721 66.2652L67.8535 68.3436C67.9126 69.0366 68.0061 69.7256 68.0807 70.4169C68.1223 70.7619 68.1549 71.1083 68.2039 71.4523L68.3526 72.4842C68.4541 73.1717 68.5449 73.8612 68.6767 74.5435C68.8021 75.2268 68.9154 75.9127 69.0505 76.594L69.4864 78.6318C69.633 79.3111 69.8107 79.9885 69.9713 80.6669L70.2182 81.6842L70.485 82.6956C70.6668 83.3688 70.8383 84.0451 71.0285 84.7156L71.6161 86.7218C72.4317 89.386 73.3536 92.0154 74.4214 94.5847L75.2488 96.5002L76.1408 98.3865C76.7639 99.6299 77.3858 100.875 78.076 102.085C79.4364 104.516 80.9265 106.877 82.523 109.17C83.331 110.311 84.1377 111.453 85.0036 112.553C85.8457 113.67 86.7298 114.757 87.6034 115.851C87.6486 115.908 87.6938 115.965 87.7368 116.018L87.7382 116.02C87.8372 116.144 87.8833 116.302 87.8664 116.459C87.8494 116.615 87.7708 116.758 87.6478 116.856C87.5693 116.918 87.4763 116.959 87.3775 116.976C87.2786 116.992 87.177 116.984 87.0818 116.951C82.9488 115.5 78.7317 114.717 74.6673 114.223C72.6328 113.975 70.63 113.814 68.6724 113.681L67.2124 113.589L66.4888 113.546C66.249 113.539 66.0109 113.542 65.7728 113.538L64.3528 113.522C64.1145 113.525 63.8762 113.512 63.6395 113.483C63.4058 113.446 63.1766 113.384 62.956 113.297C62.6095 113.158 62.2946 112.95 62.031 112.685C61.8523 112.508 61.706 112.301 61.5985 112.074C61.5338 111.952 61.4959 111.817 61.4873 111.679C61.4867 111.594 61.5128 111.555 61.5625 111.562C61.6628 111.571 61.8403 111.767 62.1751 112.022C62.6381 112.37 63.1972 112.566 63.774 112.581C63.981 112.587 64.4066 112.547 64.7552 112.527L65.8469 112.457L66.3953 112.423C66.5768 112.417 66.7566 112.419 66.9377 112.416L68.0262 112.413C69.4824 112.417 70.9557 112.451 72.4369 112.535C75.43 112.691 78.4095 113.066 81.3517 113.656C83.479 114.087 85.573 114.674 87.6163 115.414L86.4734 117.041C85.6063 115.924 84.7189 114.819 83.8778 113.673C83.4553 113.102 83.0193 112.542 82.6124 111.959C82.1914 111.387 81.7709 110.815 81.3508 110.244C81.3348 110.238 81.3198 110.233 81.3016 110.224Z" fill="white"/>
</g>
</g>
<defs>
<filter id="filter0_d_5_35" x="-4" y="3.06716e-06" width="148.802" height="148.808" filterUnits="userSpaceOnUse" color-interpolation-filters="sRGB">
<feFlood flood-opacity="0" result="BackgroundImageFix"/>
<feColorMatrix in="SourceAlpha" type="matrix" values="0 0 0 0 0 0 0 0 0 0 0 0 0 0 0 0 0 0 127 0" result="hardAlpha"/>
<feOffset dy="4"/>
<feGaussianBlur stdDeviation="2"/>
<feComposite in2="hardAlpha" operator="out"/>
<feColorMatrix type="matrix" values="0 0 0 0 0 0 0 0 0 0 0 0 0 0 0 0 0 0 0.25 0"/>
<feBlend mode="normal" in2="BackgroundImageFix" result="effect1_dropShadow_5_35"/>
<feBlend mode="normal" in="SourceGraphic" in2="effect1_dropShadow_5_35" result="shape"/>
</filter>
<clipPath id="clip0_5_35">
<rect width="99.1304" height="100" fill="white" transform="translate(0 69.7454) rotate(-44.7143)"/>
</clipPath>
</defs>
</svg>
