<svg width="118" height="118" viewBox="0 0 118 118" fill="none" xmlns="http://www.w3.org/2000/svg">
<g filter="url(#filter0_d_5_41)">
<path d="M66.9361 97.5697C66.9153 97.3603 66.9012 97.1492 66.8858 96.9385L66.8515 96.2856L66.7807 94.9244C66.7298 94.0172 66.672 93.1104 66.6071 92.204C66.4769 90.3913 66.3176 88.581 66.1292 86.773C65.7508 83.1581 65.2484 79.5579 64.6222 75.9727C63.9522 72.1726 63.1351 68.3975 62.171 64.6474C61.7296 62.9166 61.2272 61.1983 60.6639 59.4926C60.1011 57.7889 59.4767 56.1 58.7528 54.4477C58.0383 52.7858 57.2308 51.1665 56.3341 49.5977C55.4273 48.0232 54.4211 46.5095 53.3217 45.0658C53.1952 44.9008 53.0307 44.7695 52.8425 44.6832C52.6542 44.5969 52.4478 44.5581 52.241 44.5704C52.0342 44.5826 51.8333 44.6453 51.6555 44.7533C51.4777 44.8612 51.3285 45.011 51.2206 45.1899L51.212 45.2049C50.4239 46.522 49.4391 47.7091 48.2926 48.7238C48.0063 48.9765 47.7102 49.2173 47.4072 49.4485C47.1642 49.644 46.9041 49.8167 46.6301 49.9644C46.5815 49.9886 46.5301 50.0065 46.477 50.0179C46.4647 50.0187 46.4874 50.0251 46.4712 50.0233C46.4229 49.9989 46.3786 49.9672 46.3398 49.9292C46.2768 49.8681 46.223 49.798 46.1801 49.7211C46.1544 49.6761 46.1314 49.6295 46.1114 49.5816C46.1007 49.5567 46.0909 49.5308 46.0815 49.5044L46.036 49.3668L45.8447 48.7829C45.7208 48.3925 45.6085 47.9983 45.4953 47.6046C45.3796 47.2116 45.2705 46.8166 45.1644 46.4208C45.0549 46.0261 44.9505 45.6299 44.8512 45.2323C44.7482 44.8358 44.6486 44.4384 44.5554 44.0394C44.4592 43.6411 44.3643 43.2427 44.2773 42.8421C44.094 42.0437 43.9144 41.2442 43.7518 40.441C43.4209 38.8357 43.1446 37.2193 42.9016 35.5976C42.6568 33.9762 42.4593 32.3478 42.309 30.7126L42.2065 29.4942C42.1815 29.1689 42.1892 28.8417 42.2295 28.5177C42.2393 28.4432 42.2551 28.3761 42.2662 28.3051C42.2847 28.2453 42.2962 28.1741 42.3178 28.1228C42.3276 28.071 42.3438 28.0208 42.3662 27.9732C42.3735 27.9525 42.3819 27.9322 42.3913 27.9124C42.4006 27.8985 42.4087 27.8838 42.4155 27.8685C42.4198 27.8566 42.4268 27.8459 42.4359 27.8371C42.4421 27.8309 42.4452 27.8142 42.4502 27.812C42.4603 27.8097 42.4605 27.7895 42.4673 27.7927C42.4677 27.7753 42.4951 27.7758 42.5439 27.7539C42.5789 27.7548 42.6216 27.7528 42.6537 27.7508C42.6898 27.7558 42.7254 27.7632 42.7605 27.7729L42.8435 27.7981L42.9808 27.8444L43.2737 27.9433L44.446 28.3389L46.7803 29.1368C48.8296 29.836 50.8624 30.558 52.849 31.3711C54.8275 32.1747 56.7591 33.0905 58.6346 34.1142C60.4835 35.1349 62.2444 36.3097 63.8989 37.6263L64.5111 38.1214C64.7145 38.2871 64.9033 38.469 65.1002 38.6417L65.6853 39.1658C65.768 39.2376 65.8468 39.3139 65.9214 39.3943C65.9899 39.4665 66.0532 39.5419 66.1127 39.6167C66.2185 39.7469 66.3082 39.8897 66.3797 40.042C66.4353 40.1623 66.4384 40.2481 66.4308 40.2081C66.4299 40.1748 66.4361 40.1417 66.4492 40.1112C66.453 40.0921 66.4728 40.0776 66.4704 40.0674C66.4735 40.0566 66.4912 40.0502 66.4803 40.0508C66.4726 40.0562 66.4886 40.0496 66.4695 40.0573C66.4347 40.0727 66.3987 40.0852 66.3619 40.0945L66.6018 40.0481L63.5778 40.3218L62.0658 40.4588L61.3098 40.5273L60.9319 40.5626L60.8375 40.5721C60.8075 40.5913 60.7751 40.5848 60.7441 40.5924L60.5559 40.618L59.8031 40.7206L59.6149 40.7462L59.5678 40.7526L59.4784 40.7646C59.3857 40.7786 59.2945 40.8018 59.2061 40.8338C58.9757 40.9163 58.7693 41.0559 58.6057 41.2396C58.4422 41.4233 58.3269 41.6453 58.2702 41.8853C58.2136 42.1253 58.2175 42.3755 58.2815 42.6131C58.3456 42.8507 58.4678 43.068 58.637 43.2451C58.668 43.2774 58.7005 43.3085 58.734 43.338L58.7576 43.3587L58.768 43.3683L58.8535 43.444C58.8863 43.4695 58.9175 43.4972 58.9467 43.5269L59.0563 43.6414C59.1295 43.7177 59.203 43.7904 59.2799 43.8828L59.5087 44.1455L59.7374 44.424C60.3407 45.1805 60.9662 45.9695 61.5519 46.7846L61.6043 46.8629C61.654 46.8338 61.6226 46.8599 61.6358 46.8557L61.6436 46.8646L61.6594 46.8823L61.6907 46.918L61.8158 47.0613L62.0663 47.3481L62.5655 47.9252C62.8969 48.3093 63.1914 48.7242 63.4452 49.1645L63.8563 49.8079C63.9952 50.0242 64.1292 50.2351 64.29 50.4727L65.1526 51.7238C66.2978 53.394 67.4198 55.0754 68.4921 56.7836L69.2867 58.0697L70.0806 59.3742L71.6723 61.9775C72.7329 63.7116 73.7894 65.4446 74.8245 67.1871C75.8595 68.9296 76.8688 70.6837 77.8432 72.4541C78.8227 74.2223 79.7598 76.008 80.6428 77.8238C82.3004 81.1768 83.7695 84.622 85.0434 88.1429C85.5453 89.5022 85.9602 90.8929 86.2853 92.3065C86.4803 93.214 86.6049 94.1358 86.6579 95.0634C86.6834 95.3252 86.6782 95.521 86.7063 95.6616C86.7293 95.8011 86.7637 95.8814 86.8091 95.9011C86.8978 95.9403 87.0394 95.7371 87.2052 95.2848C87.4117 94.6069 87.5155 93.9017 87.513 93.1933C87.5124 92.0666 87.3735 90.9449 87.0996 89.8538C86.91 89.047 86.6726 88.2394 86.4118 87.4359C86.1496 86.6322 85.8727 85.8352 85.5784 85.029C84.9898 83.4221 84.3345 81.8272 83.6494 80.3007C82.0741 76.7857 80.3001 73.3713 78.3964 70.0487C76.4915 66.7263 74.4795 63.4829 72.4844 60.2412L70.9922 57.8094C70.4995 56.9999 69.9934 56.1767 69.4797 55.3721C68.451 53.7577 67.3866 52.1709 66.3082 50.5982L65.5068 49.4301L64.7454 48.2408C64.193 47.4641 63.8205 46.566 63.3773 45.7072L63.367 45.6869L63.3619 45.6768C63.3418 45.686 63.3837 45.6528 63.377 45.6528L63.3522 45.6152L63.3028 45.5399C63.269 45.4903 63.2379 45.4388 63.2073 45.387L63.0218 45.0772L62.6446 44.4588C62.3894 44.0476 62.1327 43.6336 61.8575 43.2268C61.5775 42.8172 61.302 42.4128 60.9601 41.9905L60.8302 41.8316C60.7849 41.7738 60.7364 41.7185 60.685 41.6661L60.5158 41.492L60.4302 41.4056L60.4087 41.3841C60.0941 41.7561 61.0976 40.536 59.7007 42.2155L59.6969 42.2198C59.6943 42.2227 59.6912 42.2251 59.6877 42.2269C59.6877 42.2269 59.6939 42.2266 59.6921 42.2266C59.6903 42.2267 59.6838 42.22 59.6867 42.2237C59.689 42.2291 59.6903 42.2348 59.6908 42.2406C59.8983 44.4476 59.7547 42.8521 59.8039 43.3445L59.815 43.3439L59.8371 43.3427L59.9259 43.338L60.2809 43.3193C60.553 43.3081 60.8246 43.2842 61.0991 43.2839L61.9173 43.21C62.4636 43.1594 63.0115 43.1086 63.5609 43.0578L66.8559 42.742C66.9329 42.7346 67.0091 42.7203 67.0836 42.6991L67.0939 42.6959C67.3027 42.636 67.5051 42.5551 67.698 42.4544C67.806 42.3974 67.9103 42.3334 68.0102 42.2628C68.1142 42.1899 68.2118 42.108 68.3019 42.018C68.4988 41.8353 68.6652 41.6217 68.7946 41.3855C68.9333 41.1317 69.0252 40.8548 69.066 40.5682C69.1278 40.0862 69.0652 39.5967 68.8844 39.1472C68.7504 38.8051 68.5717 38.4827 68.353 38.1887C68.1611 37.9264 67.9477 37.6809 67.7151 37.4546L67.5434 37.2937L67.3953 37.1676L67.0995 36.9165L66.5091 36.4196C66.4104 36.3381 66.3139 36.2541 66.2137 36.1755L65.9089 35.9466L64.8967 35.1879L63.8548 34.4768C63.5117 34.2333 63.1518 34.0186 62.7967 33.7961C62.4397 33.5771 62.0899 33.3452 61.7234 33.1448L60.6356 32.5233L59.5301 31.9407C59.1621 31.745 58.7904 31.5603 58.4172 31.3777C58.0437 31.1966 57.6753 31.0024 57.2966 30.8349C54.2895 29.4333 51.2041 28.2655 48.1134 27.1744C47.3404 26.9038 46.5656 26.6379 45.7898 26.3831L43.429 25.6058C43.2814 25.5624 43.1307 25.5301 42.9783 25.5091C42.8168 25.492 42.6543 25.4856 42.4918 25.4901L42.3726 25.491L42.2446 25.5072C42.1591 25.519 42.0738 25.5326 41.9887 25.548C41.8111 25.59 41.638 25.6496 41.4719 25.7261C41.1434 25.8873 40.8538 26.1194 40.6237 26.4059C40.5697 26.47 40.5204 26.5379 40.476 26.609C40.4321 26.6771 40.3819 26.7477 40.3464 26.8159C40.2736 26.9483 40.2091 27.0853 40.1534 27.2259C39.967 27.7209 39.8591 28.2423 39.8338 28.7707C39.8121 29.2299 39.8222 29.69 39.864 30.1475C40.0705 33.4735 40.4957 36.781 41.1368 40.0483C41.8261 43.5115 42.7269 46.9275 43.8342 50.2768C44.028 50.899 44.3952 51.451 44.892 51.8672C45.1846 52.1126 45.5271 52.2901 45.8955 52.3872C46.2801 52.4823 46.682 52.4834 47.0679 52.3903C47.3814 52.3135 47.683 52.1932 47.9641 52.033C48.192 51.9049 48.4111 51.7614 48.62 51.6036C48.9978 51.3308 49.3606 51.0375 49.7144 50.7343C51.1295 49.5139 52.3404 48.0712 53.3001 46.462L51.4025 46.587C53.0524 48.7483 54.494 51.0642 55.7075 53.5033C57.6022 57.3021 58.9808 61.3764 60.0838 65.5331C61.1779 69.6972 62.0451 73.9437 62.7263 78.2125C63.4062 82.4843 63.9026 86.7842 64.2154 91.1123C64.2955 92.1928 64.3652 93.2742 64.4247 94.3565L64.5064 95.9804L64.5432 96.7983C64.5562 97.0804 64.5743 97.3622 64.5975 97.6437C64.6753 98.7945 64.8736 99.9332 65.1893 101.041C65.3621 101.652 65.629 102.231 65.9802 102.758L66.1359 102.969C66.2575 103.11 66.3878 103.244 66.526 103.369C66.6055 103.43 66.6863 103.49 66.7683 103.548C66.8435 103.603 66.9234 103.652 67.0072 103.693C67.0837 103.736 67.1625 103.774 67.2433 103.808C67.3998 103.877 67.5603 103.936 67.7239 103.986C68.7577 104.272 69.7252 104.198 70.6208 104.061C71.4893 103.911 72.3457 103.696 73.1825 103.417C73.9988 103.152 74.7857 102.855 75.5538 102.554L76.6921 102.104C77.0649 101.957 77.4194 101.828 77.7949 101.703C79.2866 101.212 80.8359 100.817 82.2871 100.223C83.0099 99.9387 83.7024 99.5804 84.3538 99.1541C84.5098 99.0403 84.669 98.9354 84.8175 98.8156C84.9624 98.6904 85.1101 98.5719 85.2474 98.443C85.3789 98.3061 85.5107 98.1733 85.6362 98.0363C85.7571 97.8955 85.8664 97.745 85.9632 97.5864C86.2256 97.1711 86.3811 96.6965 86.4152 96.2059C86.4375 95.8982 86.361 95.7556 86.2703 95.7809C86.2407 95.79 86.2137 95.8062 86.1916 95.8282C86.1594 95.8641 86.1252 95.8981 86.0891 95.9301C86.0172 96.0167 85.929 96.1369 85.822 96.282C85.699 96.4513 85.5664 96.6132 85.425 96.7671C85.2445 96.9513 85.054 97.1253 84.8544 97.2882C84.4933 97.5812 84.1017 97.8338 83.6867 98.0415C83.2362 98.2593 82.7711 98.4452 82.2951 98.5976C81.3173 98.9216 80.2513 99.1496 79.1529 99.3934C78.6 99.5151 78.0381 99.6388 77.4619 99.7833C77.172 99.8601 76.8835 99.9312 76.5861 100.024L76.1461 100.161L75.7346 100.297C74.645 100.66 73.5875 101.022 72.5425 101.317C71.7185 101.561 70.877 101.739 70.0259 101.85C69.6525 101.896 69.2758 101.905 68.901 101.877C68.6181 101.86 68.3414 101.788 68.0866 101.664C68.0197 101.636 68.0334 101.62 68.0093 101.613C68.0046 101.609 67.9999 101.612 67.9937 101.605L67.9745 101.581C67.9611 101.566 67.9465 101.551 67.9309 101.538C67.8989 101.51 67.8644 101.444 67.8267 101.402C67.7889 101.354 67.7541 101.275 67.7149 101.215C67.5475 100.884 67.4148 100.536 67.319 100.177C67.1004 99.335 66.9589 98.4741 66.8964 97.6053C66.91 97.594 66.9224 97.5834 66.9361 97.5697Z" fill="white"/>
</g>
<defs>
<filter id="filter0_d_5_41" x="-4" y="1.57952e-06" width="125.198" height="125.975" filterUnits="userSpaceOnUse" color-interpolation-filters="sRGB">
<feFlood flood-opacity="0" result="BackgroundImageFix"/>
<feColorMatrix in="SourceAlpha" type="matrix" values="0 0 0 0 0 0 0 0 0 0 0 0 0 0 0 0 0 0 127 0" result="hardAlpha"/>
<feOffset dy="4"/>
<feGaussianBlur stdDeviation="2"/>
<feComposite in2="hardAlpha" operator="out"/>
<feColorMatrix type="matrix" values="0 0 0 0 0 0 0 0 0 0 0 0 0 0 0 0 0 0 0.25 0"/>
<feBlend mode="normal" in2="BackgroundImageFix" result="effect1_dropShadow_5_41"/>
<feBlend mode="normal" in="SourceGraphic" in2="effect1_dropShadow_5_41" result="shape"/>
</filter>
</defs>
</svg>
